<svg width="24" height="24" viewBox="0 0 24 24" fill="none" xmlns="http://www.w3.org/2000/svg">
<path d="M11.9999 13.4L7.09993 18.3C6.91659 18.4834 6.68326 18.575 6.39993 18.575C6.11659 18.575 5.88326 18.4834 5.69993 18.3C5.51659 18.1167 5.42493 17.8834 5.42493 17.6C5.42493 17.3167 5.51659 17.0834 5.69993 16.9L10.5999 12L5.69993 7.10005C5.51659 6.91672 5.42493 6.68338 5.42493 6.40005C5.42493 6.11672 5.51659 5.88338 5.69993 5.70005C5.88326 5.51672 6.11659 5.42505 6.39993 5.42505C6.68326 5.42505 6.91659 5.51672 7.09993 5.70005L11.9999 10.6L16.8999 5.70005C17.0833 5.51672 17.3166 5.42505 17.5999 5.42505C17.8833 5.42505 18.1166 5.51672 18.2999 5.70005C18.4833 5.88338 18.5749 6.11672 18.5749 6.40005C18.5749 6.68338 18.4833 6.91672 18.2999 7.10005L13.3999 12L18.2999 16.9C18.4833 17.0834 18.5749 17.3167 18.5749 17.6C18.5749 17.8834 18.4833 18.1167 18.2999 18.3C18.1166 18.4834 17.8833 18.575 17.5999 18.575C17.3166 18.575 17.0833 18.4834 16.8999 18.3L11.9999 13.4Z" fill="currentColor"/>
</svg>
