<svg width="25" height="24" viewBox="0 0 25 24" fill="none" xmlns="http://www.w3.org/2000/svg">
<path d="M23 12.0009C23 17.5238 18.5228 22.0009 13 22.0009C7.47715 22.0009 3 17.5238 3 12.0009C3 6.47806 7.47715 2.00091 13 2.00091C18.5228 2.00091 23 6.47806 23 12.0009Z" fill="#1A1A1A"/>
<path fill-rule="evenodd" clip-rule="evenodd" d="M13.2857 7.50098C13.2857 7.22483 13.0618 7.00098 12.7857 7.00098C12.5095 7.00098 12.2857 7.22483 12.2857 7.50098V11.7152H8.5C8.22386 11.7152 8 11.9391 8 12.2152C8 12.4914 8.22386 12.7152 8.5 12.7152H12.2857V16.501C12.2857 16.7771 12.5095 17.001 12.7857 17.001C13.0618 17.001 13.2857 16.7771 13.2857 16.501V12.7152H17.5C17.7761 12.7152 18 12.4914 18 12.2152C18 11.9391 17.7761 11.7152 17.5 11.7152H13.2857V7.50098Z" fill="#F9F9F9"/>
</svg>
